<?xml version="1.0" encoding="UTF-8"?>
<svg id="Layer_1" data-name="Layer 1" xmlns="http://www.w3.org/2000/svg" viewBox="0 0 171.55 112.04">
  <defs>
    <style>
      .cls-1 {
        stroke-width: 0px;
      }
    </style>
  </defs>
  <path class="cls-1" d="m146.85,1.69c-2.25-2.25-5.91-2.25-8.16,0L54.08,86.3c-2.25,2.25-5.91,2.25-8.16,0-2.25-2.25-2.25-5.91,0-8.16l32.21-32.21c2.25-2.25,2.25-5.91,0-8.16l-3.87-3.87c-2.25-2.25-5.91-2.25-8.16,0l-32.21,32.21c-2.25,2.25-5.91,2.25-8.16,0h0c-2.25-2.25-2.25-5.91,0-8.16L57.95,25.74c2.25-2.25,2.25-5.91,0-8.16l-3.87-3.87c-2.25-2.25-5.91-2.25-8.16,0L9.64,50.01l-7.95,7.95c-2.25,2.25-2.25,5.91,0,8.16l7.95,7.95,8.16,8.16,12.03,12.03,16.11,16.11c2.25,2.25,5.91,2.25,8.16,0L150.72,13.72c2.25-2.25,2.25-5.91,0-8.16l-3.87-3.87Z"/>
  <circle class="cls-1" cx="163.04" cy="29.73" r="8.5"/>
</svg>