<?xml version="1.0" encoding="utf-8"?>
<!-- Generator: Adobe Illustrator 27.9.2, SVG Export Plug-In . SVG Version: 6.00 Build 0)  -->
<svg version="1.1" id="Layer_1" xmlns="http://www.w3.org/2000/svg" xmlns:xlink="http://www.w3.org/1999/xlink" x="0px" y="0px"
	 viewBox="0 0 171.6 112" style="enable-background:new 0 0 171.6 112;" xml:space="preserve">
<style type="text/css">
	.st0{fill:#FFFFFF;}
</style>
<g>
	<path class="st0" d="M146.9,1.7c-2.2-2.2-5.9-2.2-8.2,0L54.1,86.3c-2.2,2.2-5.9,2.2-8.2,0s-2.2-5.9,0-8.2l32.2-32.2
		c2.2-2.2,2.2-5.9,0-8.2l-3.9-3.9c-2.2-2.2-5.9-2.2-8.2,0L33.9,66.1c-2.2,2.2-5.9,2.2-8.2,0s-2.2-5.9,0-8.2L58,25.7
		c2.2-2.2,2.2-5.9,0-8.2l-3.9-3.9c-2.2-2.2-5.9-2.2-8.2,0L9.6,50l-8,8c-2.2,2.2-2.2,5.9,0,8.2l8,7.9l8.2,8.2l12,12l16.1,16.1
		c2.2,2.2,5.9,2.2,8.2,0l96.6-96.7c2.2-2.2,2.2-5.9,0-8.2L146.9,1.7z"/>
	<circle class="st0" cx="163" cy="29.7" r="8.5"/>
</g>
</svg>
